<?xml version="1.0" encoding="utf-8" standalone="no"?>
<!DOCTYPE svg PUBLIC "-//W3C//DTD SVG 1.1//EN"
  "http://www.w3.org/Graphics/SVG/1.1/DTD/svg11.dtd">
<svg xmlns:xlink="http://www.w3.org/1999/xlink" width="460.8pt" height="345.6pt" viewBox="0 0 460.8 345.6" xmlns="http://www.w3.org/2000/svg" version="1.1">
 <metadata>
  <rdf:RDF xmlns:dc="http://purl.org/dc/elements/1.1/" xmlns:cc="http://creativecommons.org/ns#" xmlns:rdf="http://www.w3.org/1999/02/22-rdf-syntax-ns#">
   <cc:Work>
    <dc:type rdf:resource="http://purl.org/dc/dcmitype/StillImage"/>
    <dc:date>2024-05-29T18:05:47.481175</dc:date>
    <dc:format>image/svg+xml</dc:format>
    <dc:creator>
     <cc:Agent>
      <dc:title>Matplotlib v3.9.0, https://matplotlib.org/</dc:title>
     </cc:Agent>
    </dc:creator>
   </cc:Work>
  </rdf:RDF>
 </metadata>
 <defs>
  <style type="text/css">*{stroke-linejoin: round; stroke-linecap: butt}</style>
 </defs>
 <g id="figure_1">
  <g id="patch_1">
   <path d="M 0 345.6 
L 460.8 345.6 
L 460.8 0 
L 0 0 
z
" style="fill: #ffffff"/>
  </g>
  <g id="axes_1">
   <g id="patch_2">
    <path d="M 57.6 307.584 
L 414.72 307.584 
L 414.72 41.472 
L 57.6 41.472 
z
" style="fill: #ffffff"/>
   </g>
   <g id="matplotlib.axis_1">
    <g id="xtick_1">
     <g id="line2d_1">
      <defs>
       <path id="mb8b7c69bd4" d="M 0 0 
L 0 3.5 
" style="stroke: #000000; stroke-width: 0.8"/>
      </defs>
      <g>
       <use xlink:href="#mb8b7c69bd4" x="73.507748" y="307.584" style="stroke: #000000; stroke-width: 0.8"/>
      </g>
     </g>
     <g id="text_1">
      <!-- 1000 -->
      <g transform="translate(60.782748 322.182437) scale(0.1 -0.1)">
       <defs>
        <path id="DejaVuSans-31" d="M 794 531 
L 1825 531 
L 1825 4091 
L 703 3866 
L 703 4441 
L 1819 4666 
L 2450 4666 
L 2450 531 
L 3481 531 
L 3481 0 
L 794 0 
L 794 531 
z
" transform="scale(0.015625)"/>
        <path id="DejaVuSans-30" d="M 2034 4250 
Q 1547 4250 1301 3770 
Q 1056 3291 1056 2328 
Q 1056 1369 1301 889 
Q 1547 409 2034 409 
Q 2525 409 2770 889 
Q 3016 1369 3016 2328 
Q 3016 3291 2770 3770 
Q 2525 4250 2034 4250 
z
M 2034 4750 
Q 2819 4750 3233 4129 
Q 3647 3509 3647 2328 
Q 3647 1150 3233 529 
Q 2819 -91 2034 -91 
Q 1250 -91 836 529 
Q 422 1150 422 2328 
Q 422 3509 836 4129 
Q 1250 4750 2034 4750 
z
" transform="scale(0.015625)"/>
       </defs>
       <use xlink:href="#DejaVuSans-31"/>
       <use xlink:href="#DejaVuSans-30" x="63.623047"/>
       <use xlink:href="#DejaVuSans-30" x="127.246094"/>
       <use xlink:href="#DejaVuSans-30" x="190.869141"/>
      </g>
     </g>
    </g>
    <g id="xtick_2">
     <g id="line2d_2">
      <g>
       <use xlink:href="#mb8b7c69bd4" x="138.503653" y="307.584" style="stroke: #000000; stroke-width: 0.8"/>
      </g>
     </g>
     <g id="text_2">
      <!-- 800 -->
      <g transform="translate(128.959903 322.182437) scale(0.1 -0.1)">
       <defs>
        <path id="DejaVuSans-38" d="M 2034 2216 
Q 1584 2216 1326 1975 
Q 1069 1734 1069 1313 
Q 1069 891 1326 650 
Q 1584 409 2034 409 
Q 2484 409 2743 651 
Q 3003 894 3003 1313 
Q 3003 1734 2745 1975 
Q 2488 2216 2034 2216 
z
M 1403 2484 
Q 997 2584 770 2862 
Q 544 3141 544 3541 
Q 544 4100 942 4425 
Q 1341 4750 2034 4750 
Q 2731 4750 3128 4425 
Q 3525 4100 3525 3541 
Q 3525 3141 3298 2862 
Q 3072 2584 2669 2484 
Q 3125 2378 3379 2068 
Q 3634 1759 3634 1313 
Q 3634 634 3220 271 
Q 2806 -91 2034 -91 
Q 1263 -91 848 271 
Q 434 634 434 1313 
Q 434 1759 690 2068 
Q 947 2378 1403 2484 
z
M 1172 3481 
Q 1172 3119 1398 2916 
Q 1625 2713 2034 2713 
Q 2441 2713 2670 2916 
Q 2900 3119 2900 3481 
Q 2900 3844 2670 4047 
Q 2441 4250 2034 4250 
Q 1625 4250 1398 4047 
Q 1172 3844 1172 3481 
z
" transform="scale(0.015625)"/>
       </defs>
       <use xlink:href="#DejaVuSans-38"/>
       <use xlink:href="#DejaVuSans-30" x="63.623047"/>
       <use xlink:href="#DejaVuSans-30" x="127.246094"/>
      </g>
     </g>
    </g>
    <g id="xtick_3">
     <g id="line2d_3">
      <g>
       <use xlink:href="#mb8b7c69bd4" x="203.499558" y="307.584" style="stroke: #000000; stroke-width: 0.8"/>
      </g>
     </g>
     <g id="text_3">
      <!-- 600 -->
      <g transform="translate(193.955808 322.182437) scale(0.1 -0.1)">
       <defs>
        <path id="DejaVuSans-36" d="M 2113 2584 
Q 1688 2584 1439 2293 
Q 1191 2003 1191 1497 
Q 1191 994 1439 701 
Q 1688 409 2113 409 
Q 2538 409 2786 701 
Q 3034 994 3034 1497 
Q 3034 2003 2786 2293 
Q 2538 2584 2113 2584 
z
M 3366 4563 
L 3366 3988 
Q 3128 4100 2886 4159 
Q 2644 4219 2406 4219 
Q 1781 4219 1451 3797 
Q 1122 3375 1075 2522 
Q 1259 2794 1537 2939 
Q 1816 3084 2150 3084 
Q 2853 3084 3261 2657 
Q 3669 2231 3669 1497 
Q 3669 778 3244 343 
Q 2819 -91 2113 -91 
Q 1303 -91 875 529 
Q 447 1150 447 2328 
Q 447 3434 972 4092 
Q 1497 4750 2381 4750 
Q 2619 4750 2861 4703 
Q 3103 4656 3366 4563 
z
" transform="scale(0.015625)"/>
       </defs>
       <use xlink:href="#DejaVuSans-36"/>
       <use xlink:href="#DejaVuSans-30" x="63.623047"/>
       <use xlink:href="#DejaVuSans-30" x="127.246094"/>
      </g>
     </g>
    </g>
    <g id="xtick_4">
     <g id="line2d_4">
      <g>
       <use xlink:href="#mb8b7c69bd4" x="268.495463" y="307.584" style="stroke: #000000; stroke-width: 0.8"/>
      </g>
     </g>
     <g id="text_4">
      <!-- 400 -->
      <g transform="translate(258.951713 322.182437) scale(0.1 -0.1)">
       <defs>
        <path id="DejaVuSans-34" d="M 2419 4116 
L 825 1625 
L 2419 1625 
L 2419 4116 
z
M 2253 4666 
L 3047 4666 
L 3047 1625 
L 3713 1625 
L 3713 1100 
L 3047 1100 
L 3047 0 
L 2419 0 
L 2419 1100 
L 313 1100 
L 313 1709 
L 2253 4666 
z
" transform="scale(0.015625)"/>
       </defs>
       <use xlink:href="#DejaVuSans-34"/>
       <use xlink:href="#DejaVuSans-30" x="63.623047"/>
       <use xlink:href="#DejaVuSans-30" x="127.246094"/>
      </g>
     </g>
    </g>
    <g id="xtick_5">
     <g id="line2d_5">
      <g>
       <use xlink:href="#mb8b7c69bd4" x="333.491368" y="307.584" style="stroke: #000000; stroke-width: 0.8"/>
      </g>
     </g>
     <g id="text_5">
      <!-- 200 -->
      <g transform="translate(323.947618 322.182437) scale(0.1 -0.1)">
       <defs>
        <path id="DejaVuSans-32" d="M 1228 531 
L 3431 531 
L 3431 0 
L 469 0 
L 469 531 
Q 828 903 1448 1529 
Q 2069 2156 2228 2338 
Q 2531 2678 2651 2914 
Q 2772 3150 2772 3378 
Q 2772 3750 2511 3984 
Q 2250 4219 1831 4219 
Q 1534 4219 1204 4116 
Q 875 4013 500 3803 
L 500 4441 
Q 881 4594 1212 4672 
Q 1544 4750 1819 4750 
Q 2544 4750 2975 4387 
Q 3406 4025 3406 3419 
Q 3406 3131 3298 2873 
Q 3191 2616 2906 2266 
Q 2828 2175 2409 1742 
Q 1991 1309 1228 531 
z
" transform="scale(0.015625)"/>
       </defs>
       <use xlink:href="#DejaVuSans-32"/>
       <use xlink:href="#DejaVuSans-30" x="63.623047"/>
       <use xlink:href="#DejaVuSans-30" x="127.246094"/>
      </g>
     </g>
    </g>
    <g id="xtick_6">
     <g id="line2d_6">
      <g>
       <use xlink:href="#mb8b7c69bd4" x="398.487273" y="307.584" style="stroke: #000000; stroke-width: 0.8"/>
      </g>
     </g>
     <g id="text_6">
      <!-- 0 -->
      <g transform="translate(395.306023 322.182437) scale(0.1 -0.1)">
       <use xlink:href="#DejaVuSans-30"/>
      </g>
     </g>
    </g>
    <g id="text_7">
     <!-- Timestep -->
     <g transform="translate(213.110781 335.860562) scale(0.1 -0.1)">
      <defs>
       <path id="DejaVuSans-54" d="M -19 4666 
L 3928 4666 
L 3928 4134 
L 2272 4134 
L 2272 0 
L 1638 0 
L 1638 4134 
L -19 4134 
L -19 4666 
z
" transform="scale(0.015625)"/>
       <path id="DejaVuSans-69" d="M 603 3500 
L 1178 3500 
L 1178 0 
L 603 0 
L 603 3500 
z
M 603 4863 
L 1178 4863 
L 1178 4134 
L 603 4134 
L 603 4863 
z
" transform="scale(0.015625)"/>
       <path id="DejaVuSans-6d" d="M 3328 2828 
Q 3544 3216 3844 3400 
Q 4144 3584 4550 3584 
Q 5097 3584 5394 3201 
Q 5691 2819 5691 2113 
L 5691 0 
L 5113 0 
L 5113 2094 
Q 5113 2597 4934 2840 
Q 4756 3084 4391 3084 
Q 3944 3084 3684 2787 
Q 3425 2491 3425 1978 
L 3425 0 
L 2847 0 
L 2847 2094 
Q 2847 2600 2669 2842 
Q 2491 3084 2119 3084 
Q 1678 3084 1418 2786 
Q 1159 2488 1159 1978 
L 1159 0 
L 581 0 
L 581 3500 
L 1159 3500 
L 1159 2956 
Q 1356 3278 1631 3431 
Q 1906 3584 2284 3584 
Q 2666 3584 2933 3390 
Q 3200 3197 3328 2828 
z
" transform="scale(0.015625)"/>
       <path id="DejaVuSans-65" d="M 3597 1894 
L 3597 1613 
L 953 1613 
Q 991 1019 1311 708 
Q 1631 397 2203 397 
Q 2534 397 2845 478 
Q 3156 559 3463 722 
L 3463 178 
Q 3153 47 2828 -22 
Q 2503 -91 2169 -91 
Q 1331 -91 842 396 
Q 353 884 353 1716 
Q 353 2575 817 3079 
Q 1281 3584 2069 3584 
Q 2775 3584 3186 3129 
Q 3597 2675 3597 1894 
z
M 3022 2063 
Q 3016 2534 2758 2815 
Q 2500 3097 2075 3097 
Q 1594 3097 1305 2825 
Q 1016 2553 972 2059 
L 3022 2063 
z
" transform="scale(0.015625)"/>
       <path id="DejaVuSans-73" d="M 2834 3397 
L 2834 2853 
Q 2591 2978 2328 3040 
Q 2066 3103 1784 3103 
Q 1356 3103 1142 2972 
Q 928 2841 928 2578 
Q 928 2378 1081 2264 
Q 1234 2150 1697 2047 
L 1894 2003 
Q 2506 1872 2764 1633 
Q 3022 1394 3022 966 
Q 3022 478 2636 193 
Q 2250 -91 1575 -91 
Q 1294 -91 989 -36 
Q 684 19 347 128 
L 347 722 
Q 666 556 975 473 
Q 1284 391 1588 391 
Q 1994 391 2212 530 
Q 2431 669 2431 922 
Q 2431 1156 2273 1281 
Q 2116 1406 1581 1522 
L 1381 1569 
Q 847 1681 609 1914 
Q 372 2147 372 2553 
Q 372 3047 722 3315 
Q 1072 3584 1716 3584 
Q 2034 3584 2315 3537 
Q 2597 3491 2834 3397 
z
" transform="scale(0.015625)"/>
       <path id="DejaVuSans-74" d="M 1172 4494 
L 1172 3500 
L 2356 3500 
L 2356 3053 
L 1172 3053 
L 1172 1153 
Q 1172 725 1289 603 
Q 1406 481 1766 481 
L 2356 481 
L 2356 0 
L 1766 0 
Q 1100 0 847 248 
Q 594 497 594 1153 
L 594 3053 
L 172 3053 
L 172 3500 
L 594 3500 
L 594 4494 
L 1172 4494 
z
" transform="scale(0.015625)"/>
       <path id="DejaVuSans-70" d="M 1159 525 
L 1159 -1331 
L 581 -1331 
L 581 3500 
L 1159 3500 
L 1159 2969 
Q 1341 3281 1617 3432 
Q 1894 3584 2278 3584 
Q 2916 3584 3314 3078 
Q 3713 2572 3713 1747 
Q 3713 922 3314 415 
Q 2916 -91 2278 -91 
Q 1894 -91 1617 61 
Q 1341 213 1159 525 
z
M 3116 1747 
Q 3116 2381 2855 2742 
Q 2594 3103 2138 3103 
Q 1681 3103 1420 2742 
Q 1159 2381 1159 1747 
Q 1159 1113 1420 752 
Q 1681 391 2138 391 
Q 2594 391 2855 752 
Q 3116 1113 3116 1747 
z
" transform="scale(0.015625)"/>
      </defs>
      <use xlink:href="#DejaVuSans-54"/>
      <use xlink:href="#DejaVuSans-69" x="57.958984"/>
      <use xlink:href="#DejaVuSans-6d" x="85.742188"/>
      <use xlink:href="#DejaVuSans-65" x="183.154297"/>
      <use xlink:href="#DejaVuSans-73" x="244.677734"/>
      <use xlink:href="#DejaVuSans-74" x="296.777344"/>
      <use xlink:href="#DejaVuSans-65" x="335.986328"/>
      <use xlink:href="#DejaVuSans-70" x="397.509766"/>
     </g>
    </g>
   </g>
   <g id="matplotlib.axis_2">
    <g id="ytick_1">
     <g id="line2d_7">
      <defs>
       <path id="mb5692128df" d="M 0 0 
L -3.5 0 
" style="stroke: #000000; stroke-width: 0.8"/>
      </defs>
      <g>
       <use xlink:href="#mb5692128df" x="57.6" y="275.328" style="stroke: #000000; stroke-width: 0.8"/>
      </g>
     </g>
     <g id="text_8">
      <!-- 2 -->
      <g transform="translate(44.2375 279.127219) scale(0.1 -0.1)">
       <use xlink:href="#DejaVuSans-32"/>
      </g>
     </g>
    </g>
    <g id="ytick_2">
     <g id="line2d_8">
      <g>
       <use xlink:href="#mb5692128df" x="57.6" y="235.008" style="stroke: #000000; stroke-width: 0.8"/>
      </g>
     </g>
     <g id="text_9">
      <!-- 4 -->
      <g transform="translate(44.2375 238.807219) scale(0.1 -0.1)">
       <use xlink:href="#DejaVuSans-34"/>
      </g>
     </g>
    </g>
    <g id="ytick_3">
     <g id="line2d_9">
      <g>
       <use xlink:href="#mb5692128df" x="57.6" y="194.688" style="stroke: #000000; stroke-width: 0.8"/>
      </g>
     </g>
     <g id="text_10">
      <!-- 6 -->
      <g transform="translate(44.2375 198.487219) scale(0.1 -0.1)">
       <use xlink:href="#DejaVuSans-36"/>
      </g>
     </g>
    </g>
    <g id="ytick_4">
     <g id="line2d_10">
      <g>
       <use xlink:href="#mb5692128df" x="57.6" y="154.368" style="stroke: #000000; stroke-width: 0.8"/>
      </g>
     </g>
     <g id="text_11">
      <!-- 8 -->
      <g transform="translate(44.2375 158.167219) scale(0.1 -0.1)">
       <use xlink:href="#DejaVuSans-38"/>
      </g>
     </g>
    </g>
    <g id="ytick_5">
     <g id="line2d_11">
      <g>
       <use xlink:href="#mb5692128df" x="57.6" y="114.048" style="stroke: #000000; stroke-width: 0.8"/>
      </g>
     </g>
     <g id="text_12">
      <!-- 10 -->
      <g transform="translate(37.875 117.847219) scale(0.1 -0.1)">
       <use xlink:href="#DejaVuSans-31"/>
       <use xlink:href="#DejaVuSans-30" x="63.623047"/>
      </g>
     </g>
    </g>
    <g id="ytick_6">
     <g id="line2d_12">
      <g>
       <use xlink:href="#mb5692128df" x="57.6" y="73.728" style="stroke: #000000; stroke-width: 0.8"/>
      </g>
     </g>
     <g id="text_13">
      <!-- 12 -->
      <g transform="translate(37.875 77.527219) scale(0.1 -0.1)">
       <use xlink:href="#DejaVuSans-31"/>
       <use xlink:href="#DejaVuSans-32" x="63.623047"/>
      </g>
     </g>
    </g>
    <g id="text_14">
     <!-- Layer -->
     <g transform="translate(31.795313 188.469406) rotate(-90) scale(0.1 -0.1)">
      <defs>
       <path id="DejaVuSans-4c" d="M 628 4666 
L 1259 4666 
L 1259 531 
L 3531 531 
L 3531 0 
L 628 0 
L 628 4666 
z
" transform="scale(0.015625)"/>
       <path id="DejaVuSans-61" d="M 2194 1759 
Q 1497 1759 1228 1600 
Q 959 1441 959 1056 
Q 959 750 1161 570 
Q 1363 391 1709 391 
Q 2188 391 2477 730 
Q 2766 1069 2766 1631 
L 2766 1759 
L 2194 1759 
z
M 3341 1997 
L 3341 0 
L 2766 0 
L 2766 531 
Q 2569 213 2275 61 
Q 1981 -91 1556 -91 
Q 1019 -91 701 211 
Q 384 513 384 1019 
Q 384 1609 779 1909 
Q 1175 2209 1959 2209 
L 2766 2209 
L 2766 2266 
Q 2766 2663 2505 2880 
Q 2244 3097 1772 3097 
Q 1472 3097 1187 3025 
Q 903 2953 641 2809 
L 641 3341 
Q 956 3463 1253 3523 
Q 1550 3584 1831 3584 
Q 2591 3584 2966 3190 
Q 3341 2797 3341 1997 
z
" transform="scale(0.015625)"/>
       <path id="DejaVuSans-79" d="M 2059 -325 
Q 1816 -950 1584 -1140 
Q 1353 -1331 966 -1331 
L 506 -1331 
L 506 -850 
L 844 -850 
Q 1081 -850 1212 -737 
Q 1344 -625 1503 -206 
L 1606 56 
L 191 3500 
L 800 3500 
L 1894 763 
L 2988 3500 
L 3597 3500 
L 2059 -325 
z
" transform="scale(0.015625)"/>
       <path id="DejaVuSans-72" d="M 2631 2963 
Q 2534 3019 2420 3045 
Q 2306 3072 2169 3072 
Q 1681 3072 1420 2755 
Q 1159 2438 1159 1844 
L 1159 0 
L 581 0 
L 581 3500 
L 1159 3500 
L 1159 2956 
Q 1341 3275 1631 3429 
Q 1922 3584 2338 3584 
Q 2397 3584 2469 3576 
Q 2541 3569 2628 3553 
L 2631 2963 
z
" transform="scale(0.015625)"/>
      </defs>
      <use xlink:href="#DejaVuSans-4c"/>
      <use xlink:href="#DejaVuSans-61" x="55.712891"/>
      <use xlink:href="#DejaVuSans-79" x="116.992188"/>
      <use xlink:href="#DejaVuSans-65" x="176.171875"/>
      <use xlink:href="#DejaVuSans-72" x="237.695312"/>
     </g>
    </g>
   </g>
   <g id="line2d_13">
    <path d="M 398.487273 53.568 
L 73.832727 53.568 
L 73.832727 53.568 
" clip-path="url(#p751f69f638)" style="fill: none; stroke: #1f77b4; stroke-width: 1.5; stroke-linecap: square"/>
   </g>
   <g id="line2d_14">
    <path d="M 398.487273 53.568 
L 159.302342 53.568 
L 158.977363 56.088 
L 156.377527 56.088 
L 156.052547 81.288 
L 155.727568 56.088 
L 155.402588 81.288 
L 154.427649 81.288 
L 154.10267 56.088 
L 153.452711 56.088 
L 152.802752 106.488 
L 152.477772 103.968 
L 152.152793 81.288 
L 151.827813 103.968 
L 151.502834 103.968 
L 151.177854 81.288 
L 150.202916 156.888 
L 149.877936 207.288 
L 149.552957 182.088 
L 149.227977 182.088 
L 148.902998 207.288 
L 147.2781 207.288 
L 146.95312 229.968 
L 145.653202 229.968 
L 145.328223 255.168 
L 145.003243 255.168 
L 144.678264 232.488 
L 144.353284 232.488 
L 144.028305 255.168 
L 143.703325 232.488 
L 143.378346 255.168 
L 133.62896 255.168 
L 133.30398 229.968 
L 132.979001 229.968 
L 132.654021 255.168 
L 128.104308 255.168 
L 127.779328 229.968 
L 127.454349 229.968 
L 127.129369 255.168 
L 123.229615 255.168 
L 122.904636 232.488 
L 122.579656 232.488 
L 122.254676 255.168 
L 121.929697 255.168 
L 121.604717 232.488 
L 121.279738 232.488 
L 120.954758 255.168 
L 119.65484 255.168 
L 119.329861 232.488 
L 119.004881 255.168 
L 109.905455 255.168 
L 109.580475 229.968 
L 109.255495 255.168 
L 108.930516 229.968 
L 107.955577 229.968 
L 107.630598 255.168 
L 106.655659 255.168 
L 106.33068 229.968 
L 106.0057 229.968 
L 105.680721 232.488 
L 105.355741 232.488 
L 105.030762 229.968 
L 104.055823 229.968 
L 103.730844 255.168 
L 73.832727 255.168 
L 73.832727 255.168 
" clip-path="url(#p751f69f638)" style="fill: none; stroke: #ff7f0e; stroke-width: 1.5; stroke-linecap: square"/>
   </g>
   <g id="line2d_15">
    <path d="M 398.487273 53.568 
L 201.87466 53.568 
L 201.549681 78.768 
L 200.899722 78.768 
L 200.574742 103.968 
L 198.624865 103.968 
L 197.974906 154.368 
L 197.649926 129.168 
L 197.324947 154.368 
L 196.999967 154.368 
L 196.674988 179.568 
L 196.025029 179.568 
L 195.700049 204.768 
L 195.05009 204.768 
L 194.725111 229.968 
L 193.750172 229.968 
L 193.425192 255.168 
L 193.100213 229.968 
L 192.775233 229.968 
L 192.450254 255.168 
L 192.125274 257.688 
L 189.525438 257.688 
L 189.200459 255.168 
L 188.875479 257.688 
L 187.575561 257.688 
L 187.250581 262.728 
L 186.275643 262.728 
L 185.950663 260.208 
L 185.625684 265.248 
L 185.300704 265.248 
L 184.975725 262.728 
L 184.650745 265.248 
L 184.325766 265.248 
L 184.000786 260.208 
L 183.350827 265.248 
L 183.025848 270.288 
L 182.700868 272.808 
L 181.72593 272.808 
L 181.40095 275.328 
L 181.075971 272.808 
L 179.126093 272.808 
L 178.801114 275.328 
L 178.476134 272.808 
L 178.151155 275.328 
L 177.826175 275.328 
L 177.501196 272.808 
L 177.176216 272.808 
L 176.851237 275.328 
L 176.526257 275.328 
L 176.201278 272.808 
L 175.876298 275.328 
L 173.601441 275.328 
L 173.276462 272.808 
L 172.951482 275.328 
L 172.626503 275.328 
L 172.301523 270.288 
L 171.976544 275.328 
L 171.651564 272.808 
L 171.326585 275.328 
L 164.502015 275.328 
L 164.177035 272.808 
L 163.852056 275.328 
L 163.527076 272.808 
L 163.202097 275.328 
L 73.832727 275.328 
L 73.832727 275.328 
" clip-path="url(#p751f69f638)" style="fill: none; stroke: #2ca02c; stroke-width: 1.5; stroke-linecap: square"/>
   </g>
   <g id="line2d_16">
    <path d="M 398.487273 53.568 
L 230.472858 53.568 
L 230.147879 78.768 
L 229.822899 53.568 
L 229.49792 53.568 
L 229.17294 78.768 
L 228.847961 81.288 
L 228.522981 53.568 
L 228.198002 53.568 
L 227.548043 106.488 
L 227.223063 106.488 
L 226.898084 131.688 
L 224.298247 131.688 
L 223.973268 134.208 
L 222.998329 134.208 
L 222.67335 159.408 
L 222.34837 159.408 
L 222.023391 184.608 
L 221.048452 184.608 
L 220.723473 187.128 
L 220.398493 187.128 
L 220.073514 214.848 
L 219.748534 214.848 
L 219.423554 240.048 
L 217.798657 240.048 
L 217.473677 242.568 
L 217.148698 267.768 
L 216.823718 270.288 
L 216.498739 267.768 
L 216.173759 270.288 
L 215.84878 267.768 
L 215.198821 272.808 
L 211.949025 272.808 
L 211.624046 275.328 
L 154.427649 275.328 
L 154.10267 277.848 
L 152.802752 277.848 
L 152.477772 275.328 
L 152.152793 277.848 
L 151.827813 275.328 
L 148.578018 275.328 
L 148.253038 277.848 
L 147.928059 275.328 
L 147.603079 275.328 
L 147.2781 277.848 
L 143.703325 277.848 
L 143.378346 280.368 
L 143.053366 275.328 
L 142.728387 275.328 
L 142.403407 277.848 
L 141.428468 277.848 
L 141.103489 275.328 
L 140.778509 275.328 
L 140.45353 277.848 
L 140.12855 275.328 
L 139.803571 275.328 
L 139.478591 277.848 
L 138.503653 277.848 
L 138.178673 275.328 
L 137.853694 275.328 
L 137.203735 280.368 
L 136.878755 280.368 
L 136.553776 277.848 
L 136.228796 285.408 
L 135.578837 285.408 
L 135.253857 282.888 
L 134.928878 285.408 
L 134.278919 280.368 
L 133.953939 282.888 
L 133.62896 277.848 
L 133.30398 277.848 
L 132.979001 280.368 
L 132.654021 280.368 
L 132.329042 282.888 
L 132.004062 277.848 
L 131.679083 280.368 
L 131.354103 280.368 
L 130.704144 285.408 
L 130.379165 282.888 
L 130.054185 282.888 
L 129.729206 285.408 
L 129.404226 282.888 
L 129.079247 282.888 
L 128.754267 280.368 
L 127.129369 280.368 
L 126.80439 282.888 
L 126.154431 277.848 
L 123.229615 277.848 
L 122.904636 280.368 
L 122.579656 280.368 
L 122.254676 277.848 
L 121.929697 280.368 
L 121.604717 280.368 
L 121.279738 275.328 
L 120.954758 275.328 
L 120.629779 277.848 
L 119.97982 277.848 
L 119.65484 280.368 
L 119.329861 277.848 
L 119.004881 280.368 
L 118.354922 280.368 
L 117.704963 285.408 
L 117.379984 285.408 
L 117.055004 282.888 
L 116.080066 282.888 
L 115.755086 280.368 
L 115.430106 282.888 
L 115.105127 282.888 
L 114.780147 280.368 
L 114.455168 285.408 
L 114.130188 280.368 
L 113.805209 277.848 
L 113.480229 280.368 
L 113.15525 280.368 
L 112.83027 282.888 
L 112.505291 282.888 
L 112.180311 287.928 
L 111.855332 282.888 
L 111.530352 285.408 
L 110.880393 285.408 
L 110.555414 282.888 
L 110.230434 282.888 
L 109.255495 290.448 
L 108.930516 287.928 
L 108.605536 287.928 
L 108.280557 282.888 
L 107.955577 287.928 
L 107.630598 282.888 
L 107.305618 282.888 
L 106.980639 285.408 
L 106.655659 282.888 
L 106.0057 282.888 
L 105.680721 280.368 
L 105.355741 282.888 
L 105.030762 277.848 
L 104.705782 280.368 
L 104.380803 285.408 
L 104.055823 282.888 
L 103.080885 282.888 
L 102.755905 280.368 
L 102.430925 285.408 
L 101.780966 280.368 
L 100.806028 280.368 
L 100.481048 277.848 
L 100.156069 280.368 
L 99.831089 275.328 
L 99.50611 277.848 
L 99.18113 277.848 
L 98.856151 275.328 
L 98.531171 277.848 
L 98.206192 277.848 
L 97.881212 275.328 
L 97.556233 275.328 
L 97.231253 277.848 
L 96.906274 282.888 
L 96.581294 282.888 
L 95.931335 287.928 
L 95.606355 285.408 
L 94.631417 285.408 
L 94.306437 290.448 
L 93.981458 287.928 
L 93.656478 287.928 
L 93.331499 285.408 
L 93.006519 280.368 
L 92.68154 280.368 
L 92.35656 287.928 
L 92.031581 285.408 
L 91.706601 287.928 
L 91.381622 285.408 
L 91.056642 285.408 
L 90.731663 287.928 
L 90.081704 287.928 
L 89.756724 282.888 
L 89.431744 285.408 
L 88.781785 285.408 
L 88.456806 282.888 
L 88.131826 285.408 
L 86.831908 285.408 
L 86.506929 287.928 
L 85.53199 287.928 
L 84.882031 292.968 
L 84.232072 287.928 
L 81.957215 287.928 
L 81.632236 295.488 
L 81.307256 292.968 
L 80.657297 292.968 
L 80.332318 295.488 
L 79.682359 295.488 
L 79.357379 292.968 
L 78.382441 292.968 
L 78.057461 295.488 
L 73.832727 295.488 
L 73.832727 295.488 
" clip-path="url(#p751f69f638)" style="fill: none; stroke: #d62728; stroke-width: 1.5; stroke-linecap: square"/>
   </g>
   <g id="patch_3">
    <path d="M 57.6 307.584 
L 57.6 41.472 
" style="fill: none; stroke: #000000; stroke-width: 0.8; stroke-linejoin: miter; stroke-linecap: square"/>
   </g>
   <g id="patch_4">
    <path d="M 414.72 307.584 
L 414.72 41.472 
" style="fill: none; stroke: #000000; stroke-width: 0.8; stroke-linejoin: miter; stroke-linecap: square"/>
   </g>
   <g id="patch_5">
    <path d="M 57.6 307.584 
L 414.72 307.584 
" style="fill: none; stroke: #000000; stroke-width: 0.8; stroke-linejoin: miter; stroke-linecap: square"/>
   </g>
   <g id="patch_6">
    <path d="M 57.6 41.472 
L 414.72 41.472 
" style="fill: none; stroke: #000000; stroke-width: 0.8; stroke-linejoin: miter; stroke-linecap: square"/>
   </g>
   <g id="text_15">
    <!-- Early-exit layer w.r.t. timestep -->
    <g transform="translate(146.130938 35.472) scale(0.12 -0.12)">
     <defs>
      <path id="DejaVuSans-45" d="M 628 4666 
L 3578 4666 
L 3578 4134 
L 1259 4134 
L 1259 2753 
L 3481 2753 
L 3481 2222 
L 1259 2222 
L 1259 531 
L 3634 531 
L 3634 0 
L 628 0 
L 628 4666 
z
" transform="scale(0.015625)"/>
      <path id="DejaVuSans-6c" d="M 603 4863 
L 1178 4863 
L 1178 0 
L 603 0 
L 603 4863 
z
" transform="scale(0.015625)"/>
      <path id="DejaVuSans-2d" d="M 313 2009 
L 1997 2009 
L 1997 1497 
L 313 1497 
L 313 2009 
z
" transform="scale(0.015625)"/>
      <path id="DejaVuSans-78" d="M 3513 3500 
L 2247 1797 
L 3578 0 
L 2900 0 
L 1881 1375 
L 863 0 
L 184 0 
L 1544 1831 
L 300 3500 
L 978 3500 
L 1906 2253 
L 2834 3500 
L 3513 3500 
z
" transform="scale(0.015625)"/>
      <path id="DejaVuSans-20" transform="scale(0.015625)"/>
      <path id="DejaVuSans-77" d="M 269 3500 
L 844 3500 
L 1563 769 
L 2278 3500 
L 2956 3500 
L 3675 769 
L 4391 3500 
L 4966 3500 
L 4050 0 
L 3372 0 
L 2619 2869 
L 1863 0 
L 1184 0 
L 269 3500 
z
" transform="scale(0.015625)"/>
      <path id="DejaVuSans-2e" d="M 684 794 
L 1344 794 
L 1344 0 
L 684 0 
L 684 794 
z
" transform="scale(0.015625)"/>
     </defs>
     <use xlink:href="#DejaVuSans-45"/>
     <use xlink:href="#DejaVuSans-61" x="63.183594"/>
     <use xlink:href="#DejaVuSans-72" x="124.462891"/>
     <use xlink:href="#DejaVuSans-6c" x="165.576172"/>
     <use xlink:href="#DejaVuSans-79" x="193.359375"/>
     <use xlink:href="#DejaVuSans-2d" x="250.789062"/>
     <use xlink:href="#DejaVuSans-65" x="286.873047"/>
     <use xlink:href="#DejaVuSans-78" x="346.646484"/>
     <use xlink:href="#DejaVuSans-69" x="405.826172"/>
     <use xlink:href="#DejaVuSans-74" x="433.609375"/>
     <use xlink:href="#DejaVuSans-20" x="472.818359"/>
     <use xlink:href="#DejaVuSans-6c" x="504.605469"/>
     <use xlink:href="#DejaVuSans-61" x="532.388672"/>
     <use xlink:href="#DejaVuSans-79" x="593.667969"/>
     <use xlink:href="#DejaVuSans-65" x="652.847656"/>
     <use xlink:href="#DejaVuSans-72" x="714.371094"/>
     <use xlink:href="#DejaVuSans-20" x="755.484375"/>
     <use xlink:href="#DejaVuSans-77" x="787.271484"/>
     <use xlink:href="#DejaVuSans-2e" x="859.933594"/>
     <use xlink:href="#DejaVuSans-72" x="891.720703"/>
     <use xlink:href="#DejaVuSans-2e" x="923.708984"/>
     <use xlink:href="#DejaVuSans-74" x="955.496094"/>
     <use xlink:href="#DejaVuSans-2e" x="994.705078"/>
     <use xlink:href="#DejaVuSans-20" x="1026.492188"/>
     <use xlink:href="#DejaVuSans-74" x="1058.279297"/>
     <use xlink:href="#DejaVuSans-69" x="1097.488281"/>
     <use xlink:href="#DejaVuSans-6d" x="1125.271484"/>
     <use xlink:href="#DejaVuSans-65" x="1222.683594"/>
     <use xlink:href="#DejaVuSans-73" x="1284.207031"/>
     <use xlink:href="#DejaVuSans-74" x="1336.306641"/>
     <use xlink:href="#DejaVuSans-65" x="1375.515625"/>
     <use xlink:href="#DejaVuSans-70" x="1437.039062"/>
    </g>
   </g>
   <g id="legend_1">
    <g id="patch_7">
     <path d="M 283.079375 302.584 
L 407.72 302.584 
Q 409.72 302.584 409.72 300.584 
L 409.72 242.8715 
Q 409.72 240.8715 407.72 240.8715 
L 283.079375 240.8715 
Q 281.079375 240.8715 281.079375 242.8715 
L 281.079375 300.584 
Q 281.079375 302.584 283.079375 302.584 
z
" style="fill: #ffffff; opacity: 0.8; stroke: #cccccc; stroke-linejoin: miter"/>
    </g>
    <g id="line2d_17">
     <path d="M 285.079375 248.969937 
L 295.079375 248.969937 
L 305.079375 248.969937 
" style="fill: none; stroke: #1f77b4; stroke-width: 1.5; stroke-linecap: square"/>
    </g>
    <g id="text_16">
     <!-- Threshold = 0.025 -->
     <g transform="translate(313.079375 252.469937) scale(0.1 -0.1)">
      <defs>
       <path id="DejaVuSans-68" d="M 3513 2113 
L 3513 0 
L 2938 0 
L 2938 2094 
Q 2938 2591 2744 2837 
Q 2550 3084 2163 3084 
Q 1697 3084 1428 2787 
Q 1159 2491 1159 1978 
L 1159 0 
L 581 0 
L 581 4863 
L 1159 4863 
L 1159 2956 
Q 1366 3272 1645 3428 
Q 1925 3584 2291 3584 
Q 2894 3584 3203 3211 
Q 3513 2838 3513 2113 
z
" transform="scale(0.015625)"/>
       <path id="DejaVuSans-6f" d="M 1959 3097 
Q 1497 3097 1228 2736 
Q 959 2375 959 1747 
Q 959 1119 1226 758 
Q 1494 397 1959 397 
Q 2419 397 2687 759 
Q 2956 1122 2956 1747 
Q 2956 2369 2687 2733 
Q 2419 3097 1959 3097 
z
M 1959 3584 
Q 2709 3584 3137 3096 
Q 3566 2609 3566 1747 
Q 3566 888 3137 398 
Q 2709 -91 1959 -91 
Q 1206 -91 779 398 
Q 353 888 353 1747 
Q 353 2609 779 3096 
Q 1206 3584 1959 3584 
z
" transform="scale(0.015625)"/>
       <path id="DejaVuSans-64" d="M 2906 2969 
L 2906 4863 
L 3481 4863 
L 3481 0 
L 2906 0 
L 2906 525 
Q 2725 213 2448 61 
Q 2172 -91 1784 -91 
Q 1150 -91 751 415 
Q 353 922 353 1747 
Q 353 2572 751 3078 
Q 1150 3584 1784 3584 
Q 2172 3584 2448 3432 
Q 2725 3281 2906 2969 
z
M 947 1747 
Q 947 1113 1208 752 
Q 1469 391 1925 391 
Q 2381 391 2643 752 
Q 2906 1113 2906 1747 
Q 2906 2381 2643 2742 
Q 2381 3103 1925 3103 
Q 1469 3103 1208 2742 
Q 947 2381 947 1747 
z
" transform="scale(0.015625)"/>
       <path id="DejaVuSans-3d" d="M 678 2906 
L 4684 2906 
L 4684 2381 
L 678 2381 
L 678 2906 
z
M 678 1631 
L 4684 1631 
L 4684 1100 
L 678 1100 
L 678 1631 
z
" transform="scale(0.015625)"/>
       <path id="DejaVuSans-35" d="M 691 4666 
L 3169 4666 
L 3169 4134 
L 1269 4134 
L 1269 2991 
Q 1406 3038 1543 3061 
Q 1681 3084 1819 3084 
Q 2600 3084 3056 2656 
Q 3513 2228 3513 1497 
Q 3513 744 3044 326 
Q 2575 -91 1722 -91 
Q 1428 -91 1123 -41 
Q 819 9 494 109 
L 494 744 
Q 775 591 1075 516 
Q 1375 441 1709 441 
Q 2250 441 2565 725 
Q 2881 1009 2881 1497 
Q 2881 1984 2565 2268 
Q 2250 2553 1709 2553 
Q 1456 2553 1204 2497 
Q 953 2441 691 2322 
L 691 4666 
z
" transform="scale(0.015625)"/>
      </defs>
      <use xlink:href="#DejaVuSans-54"/>
      <use xlink:href="#DejaVuSans-68" x="61.083984"/>
      <use xlink:href="#DejaVuSans-72" x="124.462891"/>
      <use xlink:href="#DejaVuSans-65" x="163.326172"/>
      <use xlink:href="#DejaVuSans-73" x="224.849609"/>
      <use xlink:href="#DejaVuSans-68" x="276.949219"/>
      <use xlink:href="#DejaVuSans-6f" x="340.328125"/>
      <use xlink:href="#DejaVuSans-6c" x="401.509766"/>
      <use xlink:href="#DejaVuSans-64" x="429.292969"/>
      <use xlink:href="#DejaVuSans-20" x="492.769531"/>
      <use xlink:href="#DejaVuSans-3d" x="524.556641"/>
      <use xlink:href="#DejaVuSans-20" x="608.345703"/>
      <use xlink:href="#DejaVuSans-30" x="640.132812"/>
      <use xlink:href="#DejaVuSans-2e" x="703.755859"/>
      <use xlink:href="#DejaVuSans-30" x="735.542969"/>
      <use xlink:href="#DejaVuSans-32" x="799.166016"/>
      <use xlink:href="#DejaVuSans-35" x="862.789062"/>
     </g>
    </g>
    <g id="line2d_18">
     <path d="M 285.079375 263.648062 
L 295.079375 263.648062 
L 305.079375 263.648062 
" style="fill: none; stroke: #ff7f0e; stroke-width: 1.5; stroke-linecap: square"/>
    </g>
    <g id="text_17">
     <!-- Threshold = 0.05 -->
     <g transform="translate(313.079375 267.148062) scale(0.1 -0.1)">
      <use xlink:href="#DejaVuSans-54"/>
      <use xlink:href="#DejaVuSans-68" x="61.083984"/>
      <use xlink:href="#DejaVuSans-72" x="124.462891"/>
      <use xlink:href="#DejaVuSans-65" x="163.326172"/>
      <use xlink:href="#DejaVuSans-73" x="224.849609"/>
      <use xlink:href="#DejaVuSans-68" x="276.949219"/>
      <use xlink:href="#DejaVuSans-6f" x="340.328125"/>
      <use xlink:href="#DejaVuSans-6c" x="401.509766"/>
      <use xlink:href="#DejaVuSans-64" x="429.292969"/>
      <use xlink:href="#DejaVuSans-20" x="492.769531"/>
      <use xlink:href="#DejaVuSans-3d" x="524.556641"/>
      <use xlink:href="#DejaVuSans-20" x="608.345703"/>
      <use xlink:href="#DejaVuSans-30" x="640.132812"/>
      <use xlink:href="#DejaVuSans-2e" x="703.755859"/>
      <use xlink:href="#DejaVuSans-30" x="735.542969"/>
      <use xlink:href="#DejaVuSans-35" x="799.166016"/>
     </g>
    </g>
    <g id="line2d_19">
     <path d="M 285.079375 278.326187 
L 295.079375 278.326187 
L 305.079375 278.326187 
" style="fill: none; stroke: #2ca02c; stroke-width: 1.5; stroke-linecap: square"/>
    </g>
    <g id="text_18">
     <!-- Threshold = 0.075 -->
     <g transform="translate(313.079375 281.826187) scale(0.1 -0.1)">
      <defs>
       <path id="DejaVuSans-37" d="M 525 4666 
L 3525 4666 
L 3525 4397 
L 1831 0 
L 1172 0 
L 2766 4134 
L 525 4134 
L 525 4666 
z
" transform="scale(0.015625)"/>
      </defs>
      <use xlink:href="#DejaVuSans-54"/>
      <use xlink:href="#DejaVuSans-68" x="61.083984"/>
      <use xlink:href="#DejaVuSans-72" x="124.462891"/>
      <use xlink:href="#DejaVuSans-65" x="163.326172"/>
      <use xlink:href="#DejaVuSans-73" x="224.849609"/>
      <use xlink:href="#DejaVuSans-68" x="276.949219"/>
      <use xlink:href="#DejaVuSans-6f" x="340.328125"/>
      <use xlink:href="#DejaVuSans-6c" x="401.509766"/>
      <use xlink:href="#DejaVuSans-64" x="429.292969"/>
      <use xlink:href="#DejaVuSans-20" x="492.769531"/>
      <use xlink:href="#DejaVuSans-3d" x="524.556641"/>
      <use xlink:href="#DejaVuSans-20" x="608.345703"/>
      <use xlink:href="#DejaVuSans-30" x="640.132812"/>
      <use xlink:href="#DejaVuSans-2e" x="703.755859"/>
      <use xlink:href="#DejaVuSans-30" x="735.542969"/>
      <use xlink:href="#DejaVuSans-37" x="799.166016"/>
      <use xlink:href="#DejaVuSans-35" x="862.789062"/>
     </g>
    </g>
    <g id="line2d_20">
     <path d="M 285.079375 293.004312 
L 295.079375 293.004312 
L 305.079375 293.004312 
" style="fill: none; stroke: #d62728; stroke-width: 1.5; stroke-linecap: square"/>
    </g>
    <g id="text_19">
     <!-- Threshold = 0.1 -->
     <g transform="translate(313.079375 296.504312) scale(0.1 -0.1)">
      <use xlink:href="#DejaVuSans-54"/>
      <use xlink:href="#DejaVuSans-68" x="61.083984"/>
      <use xlink:href="#DejaVuSans-72" x="124.462891"/>
      <use xlink:href="#DejaVuSans-65" x="163.326172"/>
      <use xlink:href="#DejaVuSans-73" x="224.849609"/>
      <use xlink:href="#DejaVuSans-68" x="276.949219"/>
      <use xlink:href="#DejaVuSans-6f" x="340.328125"/>
      <use xlink:href="#DejaVuSans-6c" x="401.509766"/>
      <use xlink:href="#DejaVuSans-64" x="429.292969"/>
      <use xlink:href="#DejaVuSans-20" x="492.769531"/>
      <use xlink:href="#DejaVuSans-3d" x="524.556641"/>
      <use xlink:href="#DejaVuSans-20" x="608.345703"/>
      <use xlink:href="#DejaVuSans-30" x="640.132812"/>
      <use xlink:href="#DejaVuSans-2e" x="703.755859"/>
      <use xlink:href="#DejaVuSans-31" x="735.542969"/>
     </g>
    </g>
   </g>
  </g>
 </g>
 <defs>
  <clipPath id="p751f69f638">
   <rect x="57.6" y="41.472" width="357.12" height="266.112"/>
  </clipPath>
 </defs>
</svg>
